<?xml version="1.0" encoding="UTF-8"?>
<svg xmlns="http://www.w3.org/2000/svg" version="1.1" viewBox="0 0 490 490">
  <defs>
    <style>
      .cls-1 {
        fill: #fff;
        fill-rule: evenodd;
      }

      .cls-2 {
        fill: #e6a537;
      }
    </style>
  </defs>
  <!-- Generator: Adobe Illustrator 28.7.1, SVG Export Plug-In . SVG Version: 1.2.0 Build 142)  -->
  <g>
    <g id="Layer_1">
      <g id="katman_1">
        <rect class="cls-2" width="490" height="490"/>
        <g>
          <g>
            <path class="cls-1" d="M215.8,270.6c-12.8,9.2-31.3,14.1-47.3,14.1s-42.5-8-57.8-21.4c-1.2-1,0-2.5,1.3-1.7,16.5,9.3,36.9,14.9,57.8,14.9s29.8-2.8,44.1-8.8c2.2-1,4,1.3,1.9,2.8h0Z"/>
            <path class="cls-1" d="M223.3,260.5c1.3,1.7-.3,12.9-6.7,18.2-1,.8-1.9.4-1.5-.7,1.5-3.6,4.7-11.7,3.1-13.7-1.5-1.9-9.9-.9-13.7-.5-1.1.1-1.3-.9-.3-1.6,6.7-4.8,17.8-3.4,19-1.8h0Z"/>
          </g>
          <g>
            <path class="cls-1" d="M111.7,249.7c-1.3-1.8-2.7-3.2-2.7-6.5v-11c0-4.7.3-8.9-3.1-12.1-2.7-2.6-7.2-3.5-10.6-3.5-6.7,0-14.1,2.5-15.6,10.8-.2.9.4,1.4,1,1.5l6.8.7c.6,0,1.1-.7,1.2-1.3.6-2.8,3-4.2,5.6-4.2s3.1.5,3.9,1.8c1,1.5.9,3.5.9,5.1v.9c-4.1.5-9.4.8-13.2,2.5-4.4,1.9-7.4,5.8-7.4,11.5s4.6,11,10.5,11,7.7-1.2,11.6-5.1c1.3,1.8,1.7,2.7,4,4.7.5.3,1.2.2,1.6-.2,1.4-1.2,4-3.5,5.5-4.6.6-.5.5-1.2,0-1.9h0ZM99.2,239c0,2.7,0,5-1.3,7.5-1.1,2-2.9,3.2-4.8,3.2s-4.3-2-4.3-5.1c0-6,5.4-7.1,10.4-7.1v1.6h0Z"/>
            <path class="cls-1" d="M116.5,255.6v-36.9c0-.7.6-1.3,1.3-1.3h6.2c.6,0,1.1.6,1.2,1.2v4.8h0c1.6-4.7,4.7-6.8,8.8-6.8s6.8,2.2,8.6,6.8c1.6-4.7,5.3-6.8,9.2-6.8s5.8,1.2,7.7,4c2.1,3.1,1.7,7.6,1.7,11.5v23.3c0,.7-.6,1.3-1.2,1.3h-6.7c-.7,0-1.2-.6-1.2-1.3v-19.6c0-1.5.1-5.5-.2-6.9-.5-2.5-2-3.2-3.9-3.2s-3.3,1.1-4,3-.6,5-.6,7v19.6c0,.7-.6,1.3-1.2,1.3h-6.7c-.7,0-1.2-.6-1.2-1.3v-19.6c0-4.1.6-10.2-4.1-10.2s-4.6,5.9-4.6,10.2v19.6c0,.8-.5,1.4-1.2,1.4h-6.6c-.6,0-1.1-.6-1.2-1.2h-.2Z"/>
            <path class="cls-1" d="M201.2,249.8c-1.3-1.8-2.7-3.2-2.7-6.5v-11c0-4.7.3-8.9-3.1-12.1-2.7-2.6-7.2-3.5-10.6-3.5-6.7,0-14.2,2.4-15.7,10.8-.2.9.5,1.4,1,1.5l6.8.7c.6,0,1.1-.7,1.2-1.3.6-2.8,3-4.2,5.6-4.2s3.1.5,3.9,1.8c1,1.5.8,3.5.8,5.1v.9c-4.1.5-9.4.8-13.2,2.5-4.4,1.9-7.4,5.8-7.4,11.5s4.6,11,10.5,11,7.7-1.2,11.5-5.1c1.3,1.8,1.7,2.7,4,4.7.5.3,1.2.2,1.7-.2,1.4-1.2,4-3.5,5.5-4.5.6-.5.4-1.2,0-1.9l.2-.2ZM188.6,239c0,2.7,0,5-1.3,7.5-1.1,2-2.9,3.2-4.8,3.2s-4.3-2-4.3-5.1c0-6,5.3-7.1,10.4-7.1v1.6h0Z"/>
            <path class="cls-1" d="M230.4,247.6v5.5c0,.7-.8,1.6-1.7,1.2-6.9-3.8-16-4.2-23.6,0-.8.4-1.6-.5-1.6-1.2v-5.3c0-.8,0-2.3.9-3.6l13.4-20h-11.7c-.7,0-1.2-.5-1.3-1.2v-5.2c0-.8.6-1.3,1.2-1.3h22.3c.7,0,1.3.6,1.3,1.3v4.4c0,.7-.6,1.7-1.7,3.2l-11.6,17.2c4.3-.1,8.8.6,12.8,2.8.9.5,1.1,1.2,1.2,2v.2Z"/>
            <path class="cls-1" d="M250.5,216.6c-10,0-15.5,8.8-15.5,20s5.5,20.2,15.5,20.2,15.8-8.8,15.8-19.8-5.5-20.4-15.8-20.4h0ZM250.5,249.3c-5.4,0-5.3-9.4-5.3-13.9s.3-11.5,5.4-11.5,3.8,1,4.5,3.5c.9,2.9,1,6.5,1,9.6,0,4.7-.2,12.3-5.6,12.3h0Z"/>
            <path class="cls-1" d="M298,220.9c1.7,2.9,1.7,7.9,1.7,11.5v23.2c0,.7-.6,1.1-1.2,1.1h-6.5c-.6,0-1.1-.5-1.1-1.1v-20c0-4,.5-10-4.1-10s-3.1,1.1-3.8,3c-.9,2.3-1,4.5-1,7v19.8c0,.8-.6,1.4-1.2,1.4h-6.5c-.7,0-1.2-.6-1.2-1.3v-36.9c0-.7.6-1.2,1.2-1.2h6c.6,0,1,.5,1.1,1v5.6h.1c1.8-5.1,4.4-7.5,8.9-7.5s5.8,1.2,7.6,4.3h0Z"/>
          </g>
          <g>
            <path class="cls-1" d="M339,220.6c-2.5-2.7-6.2-4-11.3-4s-2.9.1-4.2.3c-1.8.2-3.6.8-5.2,1.4-1.6.7-3.1,1.5-4.3,2.2-.4.3-.6.9-.4,1.3l1,2.1c.2.5.9.7,1.4.5,2.4-1.3,5.6-2.4,8.5-3.1.8-.2,1.8-.2,2.8-.2,6.2,0,9.3,3,9.3,9v1.9h-8.5c-5.3.2-9.5.9-12.4,2.9-3.3,2.1-4.9,5.5-4.9,9.6s1.1,5.3,3.3,7.2c2.1,1.8,4.9,2.7,8.5,2.7s6.2-.7,8.9-2.2c2.2-1.3,4-2.8,5.4-4.8v4.7c0,.7.6,1.4,1.4,1.4h2.4c.7,0,1.4-.6,1.4-1.4v-21.8c0-4.1-1-7.3-3.1-9.7h0ZM336.7,239.4c0,2.8-1.3,5.3-3.9,7.5s-5.6,3.4-8.9,3.4-4-.6-5.3-1.6c-1.4-1.1-2-2.4-2-4.1,0-5.2,4-7.8,11.9-8h8.2c0-.1,0,2.9,0,2.9h0Z"/>
            <path class="cls-1" d="M380.9,205.3h-3c-.8,0-1.4.6-1.4,1.2v19c-3-4.8-7.2-7.2-12.7-7.2s-9.7,1.8-12.9,5.5c-2.9,3.3-4.3,7.4-4.3,12.5s1.4,9.4,4.3,12.7c3.1,3.6,7.5,5.5,13.1,5.5s10.1-2.2,12.7-6.5v4.4c0,.7.6,1.2,1.4,1.2h2.8c.7,0,1.4-.5,1.4-1.2v-45.6c0-.8-.7-1.4-1.5-1.5h.1ZM376.6,236.9c0,3.8-1,6.9-2.8,9.3-2.2,2.7-5.1,4-9,4s-7.2-1.4-9.3-4c-1.8-2.4-2.7-5.6-2.7-9.7s.9-7.3,2.8-9.6c2.1-2.7,5.3-4,9.5-4s6.2,1.2,8.4,3.7c2,2.4,3.2,5.7,3.2,9.7v.7h-.1Z"/>
            <path class="cls-1" d="M411.5,244c0,3.3-1.4,5.9-4.1,7.8-2.7,1.9-6.3,2.8-10.6,2.8s-6.6-.6-9.3-1.8c-.4-.2-.6-.5-.6-1v-4c0-.8.9-1.3,1.6-.9,2.8,1.7,5.7,2.5,8.9,2.5,5,0,8.4-1.7,8.4-4.9s-.6-2.6-1.7-3.4c-1.1-.9-4.2-2-7.6-3.2-4-1.6-6.7-3.2-7.9-4.8-1.2-1.6-1.8-3.5-1.8-5.7,0-3.2,1.4-6,4.1-8,2.7-1.9,6.1-2.9,10.1-2.9s5.5.7,8,1.6c.4.2.7.5.7,1v3.7c0,.8-.8,1.2-1.5.9-2.3-1.1-4.9-2-7.7-2s-4.3.5-5.6,1.3c-1.3.9-2.2,2.4-2.2,3.8s.5,2.6,1.4,3.4c.9.8,3.9,1.8,7.1,3.1,4,1.5,6.8,3.1,8.2,4.7,1.4,1.6,2.2,3.6,2.2,6h-.1Z"/>
          </g>
        </g>
      </g>
    </g>
  </g>
</svg>