<?xml version="1.0" encoding="UTF-8"?>
<svg id="Layer_1" xmlns="http://www.w3.org/2000/svg" viewBox="0 0 490 490">
  <defs>
    <style>
      .cls-1, .cls-2 {
        fill: #fff;
      }

      .cls-3 {
        fill: #3a589e;
      }

      .cls-2 {
        stroke: #fff;
        stroke-miterlimit: 10;
        stroke-width: 8px;
      }
    </style>
  </defs>
  <rect class="cls-3" width="490" height="490"/>
  <g>
    <path class="cls-1" d="M209.5,139.76c-12.02-2.4-21.29-4.46-34.34-4.46-36.74,0-51.16,17.51-51.16,48.41v22.66h-23.01v36.74h23.01v111.59h44.64v-111.59h32.62l3.09-36.74h-35.71v-17.86c0-9.96,1.03-16.14,15.11-16.14s13.73,1.03,19.92,2.06l5.49-35.02h0l.34.34Z"/>
    <path class="cls-2" d="M264.38,353.46h7.34l-29.52-84.8h-11.09l-29.52,84.8h7.34l7.96-22.33h39.51l7.96,22.33h0ZM236.74,273.03l17.49,51.69h-34.82l17.49-51.69h-.16ZM284.84,337.53c0,11.24,5.47,17.18,17.49,17.18s14.68-2.34,20.93-7.18l.31,5.78h6.72v-88.23l-7.34.94v26.08c-7.18-1.41-12.65-2.03-19.05-2.03-14.05,0-19.05,7.81-19.05,19.05v28.42ZM322.94,340.18c-5.78,4.68-12.49,7.96-20.15,7.96s-10.78-3.44-10.78-10.62v-28.27c0-8.43,3.28-12.49,11.4-12.49s12.65.78,19.36,2.19v41.23h.16ZM388.84,337.84c0-11.56-.94-14.52-19.21-19.05-11.4-2.97-12.02-3.9-12.02-12.34s1.56-9.53,12.34-9.53,12.34.78,17.33,1.72l.78-6.25c-4.84-1.41-11.87-2.19-17.65-2.19-15.3,0-20.15,5.62-20.15,15.93s1.25,15.15,16.87,18.9c14.05,3.28,14.37,4.22,14.37,13.12s-2.34,9.99-13.74,9.99-11.09-.94-16.4-2.5l-1.25,5.93c4.68,1.87,12.02,3.12,18.27,3.12,16.55,0,20.61-5.78,20.61-16.87h-.16Z"/>
  </g>
</svg>