<?xml version="1.0" encoding="UTF-8"?>
<svg id="Layer_1" xmlns="http://www.w3.org/2000/svg" viewBox="0 0 490 490">
  <defs>
    <style>
      .cls-1 {
        fill: none;
        stroke: #fff;
        stroke-linecap: round;
        stroke-linejoin: round;
        stroke-width: 10px;
      }

      .cls-2 {
        fill: #478af5;
      }
    </style>
  </defs>
  <rect class="cls-2" width="490" height="490"/>
  <g>
    <polygon class="cls-1" points="181.96 216.27 245 216.27 245 135.69 192.35 135.69 181.96 216.27"/>
    <path class="cls-1" d="M192.36,135.68h-43.42c-5.95,0-11.13,4.06-12.56,9.83l-17.46,70.76h63.04"/>
    <path class="cls-1" d="M245,216.27c0,17.41-14.11,31.52-31.52,31.52s-31.52-14.11-31.52-31.52"/>
    <path class="cls-1" d="M181.96,216.27c0,17.41-14.11,31.52-31.52,31.52s-31.52-14.11-31.52-31.52"/>
    <polygon class="cls-1" points="308.04 216.27 245 216.27 245 135.69 297.65 135.69 308.04 216.27"/>
    <path class="cls-1" d="M297.64,135.68h43.42c5.95,0,11.13,4.06,12.56,9.83l17.46,70.76h-63.04"/>
    <path class="cls-1" d="M245,216.27c0,17.41,14.11,31.52,31.52,31.52s31.52-14.11,31.52-31.52"/>
    <path class="cls-1" d="M308.04,216.27c0,17.41,14.11,31.52,31.52,31.52s31.52-14.11,31.52-31.52"/>
    <path class="cls-1" d="M137.18,244.85v96.53c0,7.14,5.79,12.93,12.93,12.93h189.78c7.14,0,12.93-5.79,12.93-12.93v-96.53"/>
    <path class="cls-1" d="M306.42,306.87h25.58c.34,14.2-10.89,25.99-25.09,26.33,0,0,0,0,0,0h-.5c-14.55.01-26.34-11.77-26.35-26.32,0-14.55,11.78-26.34,26.32-26.35h.03c4.58-.02,9.09,1.18,13.06,3.46"/>
  </g>
</svg>