<?xml version="1.0" encoding="UTF-8"?>
<svg id="Layer_1" xmlns="http://www.w3.org/2000/svg" viewBox="0 0 490 490">
  <defs>
    <style>
      .cls-1 {
        fill: #fff;
      }

      .cls-2 {
        fill: #547cb9;
      }
    </style>
  </defs>
  <rect class="cls-2" width="490" height="490"/>
  <g>
    <g>
      <g>
        <path id="Shape" class="cls-1" d="M90.95,331.63c-2.68,0-5.35-.86-7.92-2.68-2.57-1.82-4.28-4.28-5.03-7.49l4.39-1.82c.54,2.03,1.61,3.75,3.21,5.14s3.43,2.14,5.46,2.14,3.85-.54,5.35-1.61,2.25-2.57,2.25-4.39-.75-3.75-2.25-4.82c-1.5-1.18-3.85-2.25-6.96-3.1-3.32-1.07-5.78-2.36-7.49-4.07s-2.57-3.75-2.57-6.32,1.07-5.03,3.21-6.96c2.14-2.03,4.92-3,8.24-3s5.78.75,7.71,2.36c2.03,1.61,3.21,3.32,3.85,5.14l-4.39,1.82c-.32-1.18-1.07-2.25-2.36-3.32-1.18-.96-2.78-1.5-4.71-1.5s-3.43.54-4.71,1.5-1.93,2.36-1.93,3.85.64,2.57,1.82,3.53c1.18.96,3,1.82,5.25,2.57,1.82.64,3.43,1.18,4.6,1.71s2.46,1.28,3.75,2.25c1.28.96,2.25,2.03,2.89,3.43.64,1.39.96,3,.96,4.71s-.32,3.43-1.18,4.82c-.75,1.39-1.71,2.57-3,3.43-1.18.86-2.57,1.5-3.96,1.93-1.39.54-2.89.75-4.39.75h-.11Z"/>
        <path id="Shape-2" class="cls-1" d="M119,331.63c-3.85,0-6.96-1.28-9.42-3.85s-3.64-5.78-3.64-9.74,1.18-6.96,3.53-9.63,5.35-4.07,8.99-4.07,6.74,1.18,9.1,3.75c2.25,2.46,3.43,5.78,3.43,9.85v.86h-20.12c.11,2.57.96,4.6,2.57,6.1s3.43,2.25,5.57,2.25c3.43,0,5.78-1.5,6.96-4.39l4.28,1.82c-.86,2.03-2.25,3.64-4.07,4.92-1.93,1.39-4.28,2.03-7.07,2.03l-.11.11ZM125.85,315.04c-.11-1.5-.75-2.89-2.03-4.17-1.18-1.28-3-2.03-5.46-2.03s-3.32.54-4.6,1.71c-1.28,1.07-2.25,2.57-2.68,4.5h14.77Z"/>
        <path id="Shape-3" class="cls-1" d="M142.34,331.63c-2.68,0-4.92-.75-6.74-2.36-1.82-1.5-2.68-3.64-2.68-6.21s1.07-4.92,3.21-6.53,4.82-2.36,7.92-2.36,5.14.54,6.96,1.5v-.75c0-1.82-.64-3.43-1.93-4.5-1.28-1.18-2.89-1.71-4.71-1.71s-2.68.32-3.75.96-1.93,1.5-2.36,2.68l-4.39-1.82c.54-1.5,1.71-2.89,3.53-4.28,1.71-1.28,4.07-1.93,6.85-1.93s5.99.96,8.14,2.89,3.21,4.6,3.21,8.03v15.52h-4.6v-3.53h-.21c-1.93,2.89-4.71,4.39-8.35,4.39h-.11ZM143.08,327.35c2.03,0,3.75-.75,5.35-2.25,1.61-1.5,2.46-3.21,2.46-5.25-1.39-1.07-3.43-1.71-6.1-1.71s-4.07.54-5.25,1.5c-1.18.96-1.82,2.25-1.82,3.53s.54,2.25,1.61,3,2.36,1.07,3.75,1.07v.11Z"/>
        <path id="Shape-4" class="cls-1" d="M164.81,330.88h-4.82v-25.48h4.6v4.17h.21c.54-1.39,1.5-2.57,3-3.43s3-1.39,4.39-1.39,2.57.21,3.53.64l-1.82,4.5c-.64-.21-1.5-.32-2.57-.32-1.71,0-3.21.64-4.6,2.03s-2.03,3.21-2.03,5.35v13.92h.11Z"/>
        <path id="Shape-5" class="cls-1" d="M188.47,331.63c-3.85,0-6.96-1.28-9.42-3.85s-3.75-5.78-3.75-9.74,1.18-7.07,3.75-9.74c2.46-2.57,5.57-3.85,9.42-3.85s5.25.64,7.07,2.03c1.82,1.39,3.21,3.1,4.07,5.25l-4.39,1.82c-1.28-3.21-3.75-4.82-7.07-4.82s-3.96.86-5.57,2.57c-1.61,1.71-2.46,3.96-2.46,6.64s.86,4.92,2.46,6.64,3.53,2.57,5.57,2.57c3.53,0,5.99-1.61,7.39-4.82l4.28,1.82c-.86,2.03-2.25,3.85-4.17,5.25s-4.28,2.03-7.17,2.03v.21Z"/>
        <path id="Shape-6" class="cls-1" d="M207.53,293.63v11.78l-.21,3.53h.21c.64-1.18,1.82-2.25,3.32-3.1s3.1-1.28,4.82-1.28c3.21,0,5.57.96,7.28,2.89s2.46,4.6,2.46,7.81v15.52h-4.82v-14.88c0-4.71-2.14-7.07-6.32-7.07s-3.53.75-4.82,2.36-1.82,3.43-1.82,5.46v14.13h-4.82v-37.25h4.82l-.11.11Z"/>
      </g>
      <g>
        <path id="Shape-7" class="cls-1" d="M253.98,331.63c-5.46,0-10.06-1.82-13.81-5.57-3.75-3.75-5.57-8.35-5.57-13.92s1.82-10.17,5.57-13.92,8.24-5.57,13.81-5.57,10.17,2.03,13.7,6.1l-3.32,3.21c-2.57-3.21-5.99-4.71-10.38-4.71s-7.49,1.39-10.28,4.07-4.17,6.32-4.17,10.81,1.39,8.03,4.17,10.81c2.78,2.68,6.21,4.07,10.28,4.07s8.24-1.82,11.45-5.46l3.32,3.32c-1.71,2.03-3.85,3.64-6.42,4.92-2.57,1.18-5.46,1.82-8.46,1.82h.11Z"/>
        <path id="Shape-8" class="cls-1" d="M274.32,308.4c2.46-2.57,5.57-3.85,9.42-3.85s6.96,1.28,9.42,3.85c2.46,2.57,3.75,5.78,3.75,9.74s-1.18,7.07-3.75,9.74c-2.46,2.57-5.57,3.85-9.42,3.85s-6.96-1.28-9.42-3.85-3.75-5.78-3.75-9.74,1.18-7.17,3.75-9.74ZM277.86,324.78c1.71,1.71,3.64,2.57,5.89,2.57s4.17-.86,5.89-2.57c1.71-1.71,2.46-3.85,2.46-6.64s-.86-5.03-2.46-6.64c-1.71-1.71-3.64-2.57-5.89-2.57s-4.17.86-5.89,2.57c-1.71,1.71-2.46,3.85-2.46,6.64s.86,4.92,2.46,6.64Z"/>
        <path id="Shape-9" class="cls-1" d="M304.83,305.4v3.53h.21c.64-1.18,1.82-2.25,3.32-3.1,1.5-.86,3.1-1.28,4.82-1.28,3.21,0,5.57.96,7.28,2.89s2.46,4.6,2.46,7.81v15.52h-4.82v-14.88c0-4.71-2.14-7.07-6.32-7.07s-3.53.75-4.82,2.36-1.82,3.43-1.82,5.46v14.13h-4.82v-25.48h4.6l-.11.11Z"/>
        <path id="Shape-10" class="cls-1" d="M336.73,331.63c-2.89,0-5.25-.64-7.07-2.03-1.82-1.39-3.21-3.1-4.07-5.25l4.28-1.82c1.39,3.21,3.64,4.82,6.96,4.82s2.68-.32,3.64-.96c.96-.64,1.39-1.5,1.39-2.57,0-1.71-1.18-2.78-3.53-3.43l-5.14-1.28c-1.61-.43-3.21-1.18-4.6-2.36-1.5-1.18-2.25-2.68-2.25-4.71s.96-4.07,3-5.46,4.39-2.14,7.07-2.14,4.28.54,5.99,1.5c1.82.96,3,2.46,3.75,4.39l-4.17,1.71c-.96-2.25-2.89-3.43-5.78-3.43s-2.57.32-3.53.86c-.96.64-1.5,1.39-1.5,2.36,0,1.5,1.18,2.46,3.43,3l5.03,1.18c2.36.54,4.17,1.5,5.35,2.89s1.71,2.89,1.71,4.6-.96,4.17-2.78,5.78c-1.82,1.5-4.28,2.25-7.28,2.25l.11.11Z"/>
        <path id="Shape-11" class="cls-1" d="M352.25,308.4c2.46-2.57,5.57-3.85,9.42-3.85s6.96,1.28,9.42,3.85c2.46,2.57,3.75,5.78,3.75,9.74s-1.18,7.07-3.75,9.74c-2.46,2.57-5.57,3.85-9.42,3.85s-6.96-1.28-9.42-3.85-3.75-5.78-3.75-9.74,1.18-7.17,3.75-9.74ZM355.89,324.78c1.71,1.71,3.64,2.57,5.89,2.57s4.17-.86,5.89-2.57c1.71-1.71,2.46-3.85,2.46-6.64s-.86-5.03-2.46-6.64c-1.71-1.71-3.64-2.57-5.89-2.57s-4.17.86-5.89,2.57c-1.71,1.71-2.46,3.85-2.46,6.64s.86,4.92,2.46,6.64Z"/>
        <polygon id="Shape-12" class="cls-1" points="383.08 330.88 378.27 330.88 378.27 293.63 383.08 293.63 383.08 330.88"/>
        <path id="Shape-13" class="cls-1" d="M399.57,331.63c-3.85,0-6.96-1.28-9.42-3.85s-3.64-5.78-3.64-9.74,1.18-6.96,3.53-9.63c2.36-2.68,5.35-4.07,8.99-4.07s6.74,1.18,9.1,3.75c2.25,2.46,3.43,5.78,3.43,9.85v.86h-20.12c.11,2.57.96,4.6,2.57,6.1s3.43,2.25,5.57,2.25c3.43,0,5.78-1.5,6.96-4.39l4.28,1.82c-.86,2.03-2.25,3.64-4.07,4.92-1.93,1.39-4.28,2.03-7.07,2.03l-.11.11ZM406.42,315.04c-.11-1.5-.75-2.89-2.03-4.17-1.18-1.28-3-2.03-5.46-2.03s-3.32.54-4.6,1.71-2.25,2.57-2.68,4.5h14.77Z"/>
      </g>
    </g>
    <g>
      <path id="Shape-14" class="cls-1" d="M78,200.41c0-23.3,19.49-42.15,42.78-42.15s22.03,5.08,29.02,11.65l-8.05,8.05c-4.87-4.66-11.65-8.26-20.76-8.26-16.94,0-30.29,13.77-30.29,30.71s13.34,30.71,30.29,30.71,17.37-4.45,21.39-8.47c3.39-3.39,5.51-8.05,6.35-14.4h-27.53v-11.44h38.76c.42,2.12.64,4.45.64,7.2,0,8.68-2.33,19.49-9.95,26.9-7.41,7.62-16.94,11.86-29.44,11.86-23.51,0-42.99-19.06-42.99-42.15l-.21-.21Z"/>
      <path id="Shape-15" class="cls-1" d="M191.73,188.34c-15.04,0-27.32,11.44-27.32,27.11s12.28,27.11,27.32,27.11,27.32-11.44,27.32-27.11-12.28-27.11-27.32-27.11ZM191.73,231.97c-8.26,0-15.46-6.78-15.46-16.52s6.99-16.52,15.46-16.52,15.46,6.78,15.46,16.52-7.2,16.52-15.46,16.52Z"/>
      <path id="Shape-16" class="cls-1" d="M251.25,188.34c-15.04,0-27.32,11.44-27.32,27.11s12.28,27.11,27.32,27.11,27.32-11.44,27.32-27.11-12.28-27.11-27.32-27.11ZM251.25,231.97c-8.26,0-15.46-6.78-15.46-16.52s6.99-16.52,15.46-16.52,15.46,6.78,15.46,16.52-7.2,16.52-15.46,16.52Z"/>
      <path id="Shape-17" class="cls-1" d="M324.32,190.03v4.45h-.42c-2.75-3.18-7.84-6.14-14.4-6.14-13.55,0-26.05,11.86-26.05,27.32s12.5,27.11,26.05,27.11,11.65-2.97,14.4-6.14h.42v4.02c0,10.38-5.51,15.88-14.4,15.88s-11.86-5.29-13.77-9.74l-10.38,4.45c2.97,7.2,11.01,16.1,24.14,16.1s25.84-8.26,25.84-28.38v-48.92h-11.44,0ZM310.76,231.97c-8.26,0-15.04-6.99-15.04-16.31s6.99-16.52,15.04-16.52,14.4,6.99,14.4,16.52-6.35,16.31-14.4,16.31Z"/>
      <rect id="Rectangle-path" class="cls-1" x="344.01" y="161.23" width="11.86" height="79.85"/>
      <path id="Shape-18" class="cls-1" d="M388.7,231.97c-6.14,0-10.38-2.75-13.13-8.26l36.43-15.04-1.27-2.97c-2.33-6.14-9.11-17.37-23.3-17.37s-25.63,11.01-25.63,27.11,11.44,27.11,26.9,27.11,19.7-7.62,22.66-12.07l-9.32-6.14c-3.18,4.45-7.41,7.41-13.34,7.41v.21ZM387.64,198.72c4.66,0,8.68,2.33,9.95,5.72l-24.36,9.95c-.42-10.38,8.05-15.88,14.19-15.88l.21.21Z"/>
    </g>
  </g>
</svg>