<?xml version="1.0" encoding="UTF-8"?>
<svg xmlns="http://www.w3.org/2000/svg" version="1.1" xmlns:cc="http://creativecommons.org/ns#" xmlns:dc="http://purl.org/dc/elements/1.1/" xmlns:inkscape="http://www.inkscape.org/namespaces/inkscape" xmlns:rdf="http://www.w3.org/1999/02/22-rdf-syntax-ns#" xmlns:sodipodi="http://sodipodi.sourceforge.net/DTD/sodipodi-0.dtd" xmlns:svg="http://www.w3.org/2000/svg" viewBox="0 0 490 490">
  <defs>
    <style>
      .cls-1 {
        fill: #fff;
      }

      .cls-2 {
        fill: #4b75bf;
      }
    </style>
  </defs>
  <!-- Generator: Adobe Illustrator 28.7.1, SVG Export Plug-In . SVG Version: 1.2.0 Build 142)  -->
  <g>
    <g id="Layer_1">
      <sodipodi:namedview id="namedview4245" bordercolor="#666666" borderopacity="1" gridtolerance="10" guidetolerance="10" inkscape:current-layer="svg4243" inkscape:cx="97.109558" inkscape:cy="5.2810631" inkscape:pageopacity="0" inkscape:pageshadow="2" inkscape:window-height="900" inkscape:window-maximized="0" inkscape:window-width="1440" inkscape:window-x="0" inkscape:window-y="0" inkscape:zoom="0.39975639" objecttolerance="10" pagecolor="#ffffff" showgrid="false"/>
      <rect class="cls-2" width="490" height="490"/>
      <g id="g6628">
        <path id="path3806" class="cls-1" d="M294.1,148.2v190.6c0,21.3,14.7,33.2,30.3,33.2s30.3-10.1,30.3-33.2v-189.1c0-19.5-14.4-31.8-30.3-31.8s-30.3,13.5-30.3,30.3Z"/>
        <path id="path3808" class="cls-1" d="M214.7,245v93.8c0,21.3,14.7,33.2,30.3,33.2s30.3-10.1,30.3-33.2v-92.4c0-19.5-14.4-31.8-30.3-31.8s-30.3,13.5-30.3,30.3h0Z"/>
        <path id="path3810" class="cls-1" d="M195.9,341.6c0,16.7-13.6,30.3-30.3,30.3s-30.3-13.6-30.3-30.3,13.6-30.3,30.3-30.3,30.3,13.6,30.3,30.3"/>
      </g>
    </g>
  </g>
</svg>