<?xml version="1.0" encoding="UTF-8"?>
<svg id="Layer_1" xmlns="http://www.w3.org/2000/svg" xmlns:xlink="http://www.w3.org/1999/xlink" viewBox="0 0 490 490">
  <defs>
    <style>
      .cls-1 {
        fill: #2fac47;
      }

      .cls-2 {
        mask: url(#mask-1);
      }

      .cls-3, .cls-4 {
        fill: #fff;
      }

      .cls-5 {
        mask: url(#mask);
      }

      .cls-4 {
        fill-rule: evenodd;
      }
    </style>
    <mask id="mask" x="187.07" y="119.41" width="116.01" height="159.52" maskUnits="userSpaceOnUse">
      <g id="mask-2">
        <path id="path-1" class="cls-4" d="M259.58,119.41h-61.63c-5.98,0-10.88,4.89-10.88,10.88v137.77c0,5.98,4.89,10.88,10.88,10.88h94.26c5.98,0,10.88-4.89,10.88-10.88v-105.14l-43.5-43.5Z"/>
      </g>
    </mask>
    <mask id="mask-1" x="185.9" y="120.58" width="116.01" height="159.52" maskUnits="userSpaceOnUse">
      <g id="mask-4">
        <path id="path-3" class="cls-4" d="M258.41,120.58h-61.63c-5.98,0-10.88,4.89-10.88,10.88v137.77c0,5.98,4.89,10.88,10.88,10.88h94.26c5.98,0,10.88-4.89,10.88-10.88v-105.14l-43.5-43.5Z"/>
      </g>
    </mask>
  </defs>
  <rect class="cls-1" width="490" height="490"/>
  <g>
    <g>
      <g id="Clipped">
        <g class="cls-5">
          <path id="Path" class="cls-3" d="M259.58,119.41h-61.63c-5.98,0-10.88,4.89-10.88,10.88v137.77c0,5.98,4.89,10.88,10.88,10.88h94.26c5.98,0,10.88-4.89,10.88-10.88v-105.14l-43.5-43.5Z"/>
        </g>
      </g>
      <g id="Clipped-2" data-name="Clipped">
        <g class="cls-2">
          <path id="Shape" class="cls-1" d="M214.91,198.52v52.57h58.01v-52.57h-58.01ZM240.28,243.84h-18.13v-9.06h18.13v9.06ZM240.28,229.34h-18.13v-9.06h18.13v9.06ZM240.28,214.84h-18.13v-9.06h18.13v9.06ZM265.66,243.84h-18.13v-9.06h18.13v9.06ZM265.66,229.34h-18.13v-9.06h18.13v9.06ZM265.66,214.84h-18.13v-9.06h18.13v9.06Z"/>
        </g>
      </g>
    </g>
    <g>
      <g>
        <path class="cls-3" d="M135.44,352.41c2.25,0,4.5.03,6.75-.01.97-.02,1.43.36,1.53,1.34.74,6.83-2.71,13.62-8.79,16.32-6.86,3.06-15.36,1.83-20.84-4.28-4.61-5.15-5.93-11.12-3.58-17.62,2.41-6.67,7.45-10.53,14.38-11.59,5-.76,9.65.53,13.6,3.89.68.58.79,1.01.1,1.64-.82.73-1.46,1.79-2.39,2.23-1.21.57-1.78-.94-2.69-1.43-4.54-2.42-10.08-2.03-14.01,1.11-4.09,3.27-5.68,8.48-4.17,13.67,1.41,4.83,4.69,7.74,9.5,8.76,4.37.93,8.28-.18,11.45-3.49,1.28-1.34,1.85-3.01,2.3-4.74.29-1.14-.54-1.03-1.21-1.03-2.83,0-5.66-.06-8.48.03-1.3.04-1.76-.36-1.72-1.69.11-3.52-.43-3.1,3.09-3.09,1.73,0,3.46,0,5.18,0,0,0,0-.01,0-.02Z"/>
        <path class="cls-3" d="M216.47,362.1v-9.19c0-3.57-.16-3.71-3.68-3.28-.46.05-.86.12-.88.66-.05,1.18-.55.87-1.14.37-1.99-1.69-4.33-1.98-6.79-1.58-4.29.69-8.23,4.66-8.96,8.81-1.02,5.82,1.84,10.33,5.8,12.45,3.03,1.62,6.17,1.85,9.28.06.51-.29.83-1.22,1.52-.81.66.39.05,1.15.11,1.75.02.15,0,.31-.03.47-.41,2.41-1.42,4.37-3.98,5.11-2.58.75-4.74.07-6.47-1.97-1.48-1.75-1.47-1.77-3.63-.79-.19.08-.37.22-.57.27-1.53.37-1.24,1.17-.58,2.17,2.5,3.72,5.95,5.33,10.43,5.08,4.67-.26,8.57-3.64,9.26-8.24.61-4.01.09-8.04.29-11.34ZM205.92,367c-3.36-.19-6.15-3.15-6.1-6.84.05-3.71,2.96-6.74,6.45-6.72,3.22.02,5.77,3.07,5.76,6.89.28,3.72-3.02,6.84-6.11,6.67Z"/>
        <path class="cls-3" d="M156.72,348.94c-6.44-.01-11.39,4.88-11.38,11.22.02,6.52,4.89,11.44,11.34,11.44,6.44,0,11.36-4.87,11.36-11.24,0-6.59-4.78-11.41-11.31-11.42ZM156.61,366.96c-3.5-.02-6.23-2.93-6.25-6.66-.02-3.71,2.85-6.85,6.28-6.87,3.59-.02,6.38,3,6.38,6.91,0,3.78-2.77,6.64-6.41,6.62Z"/>
        <path class="cls-3" d="M181.33,348.93c-6.41-.03-11.43,5.31-11.25,11.52.18,6.32,5,11.15,11.48,11.15,6.32,0,11.24-4.97,11.24-11.38,0-6.5-4.88-11.26-11.47-11.29ZM181.43,366.96c-3.63-.03-6.46-3.08-6.39-6.89.06-3.57,3.03-6.65,6.4-6.63,3.53.02,6.42,3.17,6.36,6.96-.05,3.68-2.88,6.59-6.37,6.56Z"/>
        <path class="cls-3" d="M234.48,363.13c4.12-1.63,8.21-3.36,12.3-5.09.55-.23,1.55-.27,1.15-1.3-1.62-4.2-4.79-7.83-9.89-7.8-6.25.04-10.7,4.66-10.75,11.2-.05,4.46,1.82,7.99,5.71,10.09,4.16,2.25,8.41,1.85,12.31-.82,3.03-2.07,2.95-2.64.03-4.72-.94-.67-1.42-.53-2.18.27-2.63,2.77-6.71,2.74-9.18.11-.96-1.02-.77-1.45.5-1.95ZM233.23,359.5c-.75.32-1.08.08-1.02-.74.22-2.77,3.14-5.4,6.53-5.38.7.03,1.81.4,2.71,1.28.68.66.55,1.17-.31,1.53-2.64,1.1-5.28,2.21-7.92,3.32Z"/>
        <path class="cls-3" d="M224.87,354.29c0,4.96-.06,9.93.04,14.89.03,1.51-.48,1.81-1.87,1.77-3.58-.1-3.19.46-3.19-3.33,0-9.4.02-18.81-.03-28.21,0-1.36.36-1.84,1.77-1.8,3.29.08,3.29.01,3.29,3.36,0,4.44,0,8.88,0,13.32Z"/>
      </g>
      <g>
        <path class="cls-3" d="M268.34,339.52c4.27.05,7.26,1.69,9.27,5.12.47.8.34,1.25-.5,1.56-.44.17-.88.34-1.29.56-.88.46-1.42.4-2-.6-1.94-3.32-7.02-3.79-9.65-.99-1.8,1.91-1.18,4.62,1.32,6.03,2.29,1.28,4.86,1.85,7.26,2.86,4.86,2.04,7.08,6.04,5.92,10.89-.75,3.15-2.93,4.99-5.85,5.98-5.94,2.01-11.66-.51-14.38-6.17-.56-1.17-.3-1.76.88-2.09.25-.07.54-.11.74-.26,1.16-.89,1.65-.38,2.16.78,1.81,4.11,6.17,5.67,10.04,3.68,2.92-1.51,3.55-5.16,1.26-7.52-1.79-1.85-4.23-2.38-6.55-3.18-2.08-.72-4.11-1.52-5.71-3.13-2.23-2.24-2.71-4.91-1.74-7.8.97-2.9,3.14-4.63,6.07-5.36,1-.25,2.05-.45,2.77-.37Z"/>
        <path class="cls-3" d="M341.09,349.89c-4.28-1.67-8.99-.53-11.81,2.91-2.06,2.51-2.75,5.44-2.59,8.64.21,4.18,2.92,8.12,6.61,9.48,4.26,1.57,8.88.54,11.66-2.59,2-2.25,1.95-2.44-.83-3.59-.69-.29-1.14-.26-1.58.41-1.6,2.46-3.99,3.18-6.7,2.58-2.66-.59-4.27-2.43-5.01-5.06-.32-1.14.03-1.52,1.18-1.5,2.3.05,4.6.02,6.9.01,2.3,0,4.6-.03,6.9.01.89.02,1.33-.21,1.38-1.2.21-4.19-2.48-8.68-6.11-10.1ZM341.73,357.82c-1.56-.05-3.13-.01-4.69-.01h0c-1.67,0-3.33,0-5,0-.88,0-1.1-.36-.79-1.17.8-2.08,3.28-3.81,5.6-3.88,2.51-.07,4.75,1.34,5.78,3.55.47,1.02.41,1.55-.9,1.51Z"/>
        <path class="cls-3" d="M308.95,361.17c2.41.03,4.81,0,7.22,0s4.71-.02,7.06.01c.84.01,1.29-.23,1.28-1.13-.04-3.77-1.22-7.09-4.43-9.21-3.22-2.12-6.81-2.37-10.29-.6-4.64,2.36-6.02,6.51-5.75,11.4.24,4.33,3.14,8.21,6.91,9.36,4.79,1.46,9.02.29,11.85-3.31.48-.62,1.33-1.3.43-2.14-1.13-1.05-2.79-1.07-3.5-.17-1.08,1.36-2.39,2.31-4.19,2.46-3.74.3-6.6-1.74-7.53-5.4-.22-.86,0-1.28.96-1.27ZM308.67,356.42c1.09-2.07,2.72-3.48,5.12-3.63,2.47-.15,4.46.88,5.86,2.94.34.5.77,1.14.47,1.72-.29.58-1.03.33-1.59.34-1.41.02-2.82,0-4.23,0h0c-1.57.01-3.13-.02-4.7.03-1.14.03-1.46-.41-.93-1.4Z"/>
        <path class="cls-3" d="M282.37,355.51c0-4.55.09-9.1-.04-13.65-.06-2.04,1.22-1.59,2.37-1.69,1.26-.11,1.79.28,1.74,1.65-.13,3.08-.1,6.17-.15,9.25,0,.34-.3.76.16.96.41.18.66-.2.91-.45,1.58-1.63,3.5-2.39,5.76-2.36,4.34.06,7.37,2.53,7.67,6.87.32,4.58.14,9.2.19,13.8,0,.73-.37,1.04-1.07,1.02-.42,0-.84-.04-1.26,0-1.23.13-1.64-.35-1.61-1.61.08-3.66.09-7.32,0-10.98-.05-2.16-.61-4.18-2.94-5.07-3.7-1.41-7.55,1.2-7.66,5.29-.1,3.55-.14,7.12.02,10.67.09,2.03-1.11,1.66-2.3,1.73-1.34.08-1.85-.34-1.82-1.77.09-4.55.03-9.1.03-13.65Z"/>
        <path class="cls-3" d="M371.82,349.2c3.42-.01,5.97,1.08,7.81,3.72.61.88.39,1.32-.43,1.68-1.25.54-2.35,1.24-3.57-.43-1.17-1.61-4.05-1.85-5.94-.96-1.06.49-1.98,1.13-1.79,2.45.16,1.19,1.13,1.73,2.16,2.02,1.71.49,3.44.88,5.17,1.29,3.13.74,5.15,2.89,5.38,5.75.19,2.41-1.49,4.85-4.2,6.06-4.71,2.11-10.18.33-12.83-4.07-.57-.94-.32-1.29.52-1.61.34-.13.71-.23,1.01-.43,1-.69,1.58-.4,2.21.6,1.46,2.3,3.92,3.22,6.51,2.54,1.34-.35,2.45-1.06,2.54-2.61.09-1.62-1.09-2.28-2.37-2.7-2.28-.75-4.72-.92-6.89-2.06-1.87-.99-3.14-2.39-3.36-4.57-.24-2.38.97-3.99,2.82-5.21,1.67-1.09,3.54-1.52,5.24-1.45Z"/>
        <path class="cls-3" d="M355.96,359.72c0,1.52-.04,3.03,0,4.55.08,2.43,1.12,3.36,3.55,3.23.97-.05,2.28,1.35,2.27,2.55,0,1.28-1.08,1.08-1.85,1.13-1.56.11-3.13.12-4.6-.6-2.82-1.38-3.4-3.91-3.43-6.69-.03-2.92,0-5.85.05-8.77.02-1.21-.41-1.64-1.66-1.56-1.79.11-2.73-1.55-1.92-3.22.35-.71,1-.43,1.52-.44,2.03-.04,2.03-.02,2-2.01-.01-.99.05-1.99-.03-2.98-.09-1.1.38-1.54,1.43-1.51.42.02.84.06,1.25,0,1.1-.14,1.5.31,1.42,1.41-.08,1.09.08,2.21-.05,3.29-.18,1.53.49,1.97,1.88,1.79.36-.05.73,0,1.1,0,2.26,0,2.77.68,2.29,2.93-.15.71-.6.76-1.15.75-.83-.01-1.67.03-2.5-.04-1.39-.13-1.68.58-1.61,1.79.08,1.46.02,2.93.02,4.39h0Z"/>
      </g>
    </g>
  </g>
</svg>