<?xml version="1.0" encoding="UTF-8"?>
<svg xmlns="http://www.w3.org/2000/svg" version="1.1" viewBox="0 0 490 490">
  <defs>
    <style>
      .cls-1 {
        fill: #fff;
      }

      .cls-2 {
        fill: #606060;
      }

      .cls-3 {
        fill: #497f4c;
      }
    </style>
  </defs>
  <!-- Generator: Adobe Illustrator 28.7.1, SVG Export Plug-In . SVG Version: 1.2.0 Build 142)  -->
  <g>
    <g id="Layer_1">
      <rect class="cls-3" width="490" height="490"/>
      <path class="cls-1" d="M312.8-163.4c0,.1-.2.3-.3.4,0,0,0,0,0,0,0,0,0-.2,0-.2h0s.1-.1.1,0Z"/>
      <g>
        <path class="cls-1" d="M214.3,177.1c1.9-5,4.6-9.7,8.5-13.4,15.6-15.2,41.5-11.4,52.1,7.7,8,14.5,16.4,28.7,24.6,43.1,13.7,23.8,27.6,47.7,41.1,71.6,11.4,20-1,45.3-23.6,48.7-13.9,2.1-26.9-4.3-34-16.8-12-21-24.1-41.9-36.2-62.8-.2-.5-.6-.9-.9-1.3-1.3-1-1.8-2.5-2.6-3.9-5.4-9.4-10.8-18.7-16.2-28-3.5-6-7-12-10.4-18.1-3.1-5.4-4.6-11.3-4.4-17.6.2-3.2.6-6.4,2.1-9.3h0c0,0,0,0,0,0Z"/>
        <path class="cls-1" d="M243.2,255.4s0,0,0,0c-4.8,8.3-9.5,16.5-14.4,24.7-6.6,11.5-13.4,23.1-20.1,34.6,0,0,0,0,0,.1-.1,0-.2,0-.3,0,0,0,0,0,0,0h0c0-.2.2-.4.3-.6,1.6-3.8,2.4-8,2.4-12.3,0-18.1-14.7-32.8-32.8-32.8s-19.8,4.9-25.8,12.5h0s0,0,0,0c0,0,0,0,0-.1,3.8-6.6,7.6-13.2,11.4-19.9,15.8-27.4,31.6-54.8,47.5-82.2.1-.2.2-.4.4-.6,0,0,0,0,0,0-.7,2.8-1.3,5.6-1.5,8.6-.2,6.7,1.4,12.9,4.8,18.7,8.8,15.1,17.6,30.2,26.2,45.4.8,1.4,1.4,2.7,2.2,4h0Z"/>
        <path class="cls-2" d="M208.2,314.8c0,.2-.2.4-.3.6,0-.2.1-.4.3-.6Z"/>
        <circle class="cls-1" cx="177.1" cy="303.6" r="32.1"/>
      </g>
    </g>
  </g>
</svg>