<?xml version="1.0" encoding="UTF-8"?>
<svg xmlns="http://www.w3.org/2000/svg" version="1.1" viewBox="0 0 490 490">
  <defs>
    <style>
      .cls-1 {
        fill: #fff;
      }

      .cls-2 {
        fill: #ff642d;
      }
    </style>
  </defs>
  <!-- Generator: Adobe Illustrator 28.7.1, SVG Export Plug-In . SVG Version: 1.2.0 Build 142)  -->
  <g>
    <g id="Layer_1">
      <rect class="cls-2" width="490" height="490"/>
      <path class="cls-1" d="M312.8-163.4c0,.1-.2.3-.3.4,0,0,0,0,0,0,0,0,0-.2,0-.2h0s.1-.1.1,0Z"/>
      <path class="cls-1" d="M343,243.5c0,5.1-2.5,5.8-8.9,5.8s-7.9-1-8.6-6.3c-1.3-12.9-10.1-24.1-24.8-25.3-4.8-.5-5.8-2-5.8-7.8s.8-7.8,5.1-7.8c25.6,0,43.3,20.5,43.3,41.5h-.2ZM380.2,243.5c0-39-26.3-80-87.1-80h-121.1c-2.5,0-4.1,1.3-4.1,3.5s1,2.3,1.8,3c4.3,3.5,10.9,7.3,19.5,11.6,8.4,4.3,14.9,6.8,21.5,9.6,2.8,1,3.8,2.3,3.8,3.8s-1.5,3.5-4.6,3.5h-96c-2.8,0-4.3,1.8-4.3,3.8s.5,2.8,1.8,4.3c7.8,8.1,20.3,18,38.2,29.4,15.9,9.9,35.4,20.5,51.2,28.1,2.5,1.3,3.6,2.5,3.6,4.3s-1.5,3.3-4.6,3.3h-44.1c-2.5,0-3.8,1.3-3.8,3.3s1,2.5,2,3.8c10.1,9.1,26.1,19,47.4,28.1,28.6,12.2,57.5,19.5,89.9,19.5,61.5,0,88.6-46.1,88.6-82l.2-1h0ZM299.7,298.9c-30.1,0-55.5-24.6-55.5-55.2s25.3-54.5,55.5-54.5,55.2,24.3,55.2,54.5-24.3,55.2-55.2,55.2Z"/>
    </g>
  </g>
</svg>