<?xml version="1.0" encoding="UTF-8"?>
<svg id="Layer_1" xmlns="http://www.w3.org/2000/svg" viewBox="0 0 490 490">
  <defs>
    <style>
      .cls-1 {
        fill: #fff;
        fill-rule: evenodd;
      }

      .cls-2 {
        fill: #21fc0d;
      }
    </style>
  </defs>
  <rect class="cls-2" width="490" height="490"/>
  <g id="Layer_1-2" data-name="Layer_1">
    <path class="cls-1" d="M226.82,247.46c-42.1,0-75.92-33.81-75.92-75.6s34.13-75.6,75.92-75.6v151.51-.32ZM226.82,247.46c33.81,0,61.56,27.43,61.56,61.24s-27.43,61.24-61.56,61.24v-122.49h0ZM317.08,218.76c-33.81,0-61.56-27.43-61.56-61.24s27.43-61.24,61.56-61.24v122.49c41.79,0,75.92,33.81,75.92,75.6s-34.13,75.6-75.92,75.6v-151.51.32ZM346.11,142.84c0-25.84,21.05-46.89,46.89-46.89v93.78c-25.84,0-46.89-21.05-46.89-46.89ZM150.9,276.17c26.16,0,47.21,21.05,47.21,46.89s-21.05,46.89-47.21,46.89v-93.78h0Z"/>
  </g>
</svg>