<?xml version="1.0" encoding="UTF-8"?>
<svg xmlns="http://www.w3.org/2000/svg" version="1.1" viewBox="0 0 260 60">
  <defs>
    <style>
      .cls-1 {
        fill: #36373f;
      }

      .cls-2 {
        fill: #f37842;
      }
    </style>
  </defs>
  <!-- Generator: Adobe Illustrator 28.7.1, SVG Export Plug-In . SVG Version: 1.2.0 Build 142)  -->
  <g>
    <g id="Layer_1">
      <path class="cls-1" d="M15.2,55.8c-2.5,0-4.9-.3-7.4-.9-2.4-.6-4.8-1.4-7-2.4-.1,0-.2,0-.5-.2C0,52.1,0,52,0,51.9l.2-.4c.1-.2.3-.5.5-.8s.4-.7.7-1.1c.3-.4.5-.9.8-1.3.5-.9,1.1-1.7,1.5-2.5.5-.8.8-1.4,1-1.7l1.2.6c1.7.9,3.4,1.5,5.2,2,1.7.5,3.6.7,5.5.7s1.1,0,1.7,0c.6,0,1.2-.2,1.7-.4s.9-.5,1.3-.9.5-1,.5-1.7-.1-.7-.3-.9c-.2-.3-.4-.5-.7-.7-.3-.2-.6-.4-.9-.5-.3-.2-.6-.3-.9-.4-.7-.3-1.4-.4-2.1-.6-.7,0-1.4-.3-2.1-.4l-2.7-.6c-.9-.2-1.8-.4-2.6-.7-.9-.3-1.7-.5-2.5-.8s-1.5-.7-2.2-1.1c-1.4-.8-2.5-1.9-3.3-3.3-.8-1.4-1.2-3.2-1.2-5.5s0-1.6.3-2.4c.2-.9.4-1.7.8-2.4.7-1.5,1.6-2.7,2.7-3.6,1.1-1,2.3-1.7,3.7-2.2s2.8-.9,4.3-1.1,3-.3,4.5-.3c2.5,0,4.9.3,7.3.9,2.4.6,4.7,1.6,6.8,2.9-.8,1.3-1.6,2.7-2.3,4-.7,1.3-1.5,2.6-2.3,3.9-1.8-.9-3.6-1.6-5.4-2.2-1.7-.6-3.6-.9-5.6-.9s-1,0-1.5.1c-.5,0-1,.2-1.5.4-.4.2-.8.5-1.1.8-.3.4-.4.8-.4,1.5s.1.8.3,1.1c.2.3.6.7,1.2.9.6.3,1.3.5,2.2.7s1.8.4,2.8.6,2.1.5,3.2.7c1.1.3,2.2.6,3.3,1,1.1.4,2.1.8,3.1,1.3s1.8,1.1,2.6,1.9c.8.7,1.4,1.6,1.8,2.5.4.7.6,1.5.7,2.4.2.7.2,1.6.2,2.4,0,2.4-.5,4.4-1.5,6s-2.3,2.8-3.9,3.7-3.4,1.5-5.4,1.9c-1.9.3-3.9.5-6,.5ZM52.3,54.6l-1.6-4.2h-9l-1.6,4.2h-9.3l11.5-31.4h7.6l11.5,31.4h-9.1ZM46.3,36.5l-2,6.1h4l-2-6.1ZM63.8,54.6v-31.4h8.8v23.5h16.4v8h-25.2Z"/>
      <path class="cls-1" d="M108.5,31.4h-8.1v23.3h-9v-23.3h-8.1l-.8-.8v-7.4h26.8v7.4l-.8.8Z"/>
      <path class="cls-1" d="M155.7,55l-6.5-11.4h-6.2v11.4h-10.2V18h18.6c.9,0,1.8.2,2.7.5s1.8.8,2.7,1.3c.9.6,1.7,1.2,2.4,1.9s1.4,1.4,1.9,2.1c.6.9,1.1,2,1.5,3.2.3,1.2.5,2.4.5,3.5,0,1.8-.4,3.6-1.3,5.1-.9,1.6-2.1,2.9-3.6,4l8.7,15.3h-11.2,0ZM148.5,26.2h-5.8v8h5.8c.6,0,1.1,0,1.6-.3s1-.5,1.3-.9c.4-.4.7-.8.9-1.3s.3-1,.3-1.6-.1-1.1-.3-1.6-.5-.9-.9-1.3-.8-.6-1.3-.9c-.5,0-1-.1-1.6-.1ZM190.8,55l-1.6-4.2h-9l-1.6,4.2h-9.3l11.5-31.4h7.6l11.7,31.4h-9.3ZM184.8,36.9l-2,6.1h4l-2-6.1ZM220.5,55l-9.7-15.2v15.2h-8.9v-31.4h8.7l9.7,15.3v-15.3h8.9v31.4h-8.7ZM249,55l-7.8-9.6v9.6h-9.1v-31.4h9.1v9.6l7.8-9.6h11l-12.7,15.7,12.7,15.7h-11Z"/>
      <path class="cls-2" d="M131.5,20L120.7,0l-10.9,20h6.5v40h8.7V20h6.5Z"/>
    </g>
  </g>
</svg>