<svg version="1.1" id="Layer_1" xmlns="http://www.w3.org/2000/svg" x="0" y="0" width="260" height="60" style="enable-background:new 0 0 260 60" xml:space="preserve"><style>.st0{fill:#fff}</style><path class="st0" d="M15.2 55.8c-2.5 0-4.9-.3-7.4-.9-2.4-.6-4.8-1.4-7-2.4-.1 0-.2-.1-.5-.2-.2-.2-.3-.3-.3-.4l.2-.4c.1-.2.3-.5.5-.8.2-.3.4-.7.7-1.1.3-.4.5-.9.8-1.3.5-.9 1.1-1.7 1.5-2.5.5-.8.8-1.4 1-1.7l1.2.6c1.7.9 3.4 1.5 5.2 2 1.7.5 3.6.7 5.5.7.5 0 1.1 0 1.7-.1.6 0 1.2-.2 1.7-.4s.9-.5 1.3-.9.5-1 .5-1.7c0-.4-.1-.7-.3-.9-.2-.3-.4-.5-.7-.7-.3-.2-.6-.4-.9-.5-.3-.2-.6-.3-.9-.4-.7-.3-1.4-.4-2.1-.6-.7-.1-1.4-.3-2.1-.4l-2.7-.6c-.9-.2-1.8-.4-2.6-.7-.9-.3-1.7-.5-2.5-.8-.8-.3-1.5-.7-2.2-1.1-1.4-.8-2.5-1.9-3.3-3.3C.7 32.9.3 31.1.3 28.8c0-.8.1-1.6.3-2.4.2-.9.4-1.7.8-2.4.7-1.5 1.6-2.7 2.7-3.6 1.1-1 2.3-1.7 3.7-2.2 1.4-.5 2.8-.9 4.3-1.1 1.5-.2 3-.3 4.5-.3 2.5 0 4.9.3 7.3.9 2.4.6 4.7 1.6 6.8 2.9-.8 1.3-1.6 2.7-2.3 4-.7 1.3-1.5 2.6-2.3 3.9-1.8-.9-3.6-1.6-5.4-2.2-1.7-.6-3.6-.9-5.6-.9-.5 0-1 0-1.5.1-.5 0-1 .2-1.5.4-.4.2-.8.5-1.1.8-.3.4-.4.8-.4 1.5 0 .4.1.8.3 1.1.2.3.6.7 1.2.9.6.3 1.3.5 2.2.7.9.2 1.8.4 2.8.6 1 .2 2.1.5 3.2.7 1.1.3 2.2.6 3.3 1 1.1.4 2.1.8 3.1 1.3s1.8 1.1 2.6 1.9c.8.7 1.4 1.6 1.8 2.5.4.7.6 1.5.7 2.4.2.7.2 1.6.2 2.4 0 2.4-.5 4.4-1.5 6-1 1.6-2.3 2.8-3.9 3.7-1.6.9-3.4 1.5-5.4 1.9-1.9.3-3.9.5-6 .5zM52.3 54.6l-1.6-4.2h-9l-1.6 4.2h-9.3l11.5-31.4h7.6l11.5 31.4h-9.1zm-6-18.1-2 6.1h4l-2-6.1zM63.8 54.6V23.2h8.8v23.5H89v8H63.8z"/><path class="st0" d="M108.5 31.4h-8.1v23.3h-9V31.4h-8.1l-.8-.8v-7.4h26.8v7.4l-.8.8z"/><g><path class="st0" d="m155.7 55-6.5-11.4H143V55h-10.2V18h18.6c.9 0 1.8.2 2.7.5.9.3 1.8.8 2.7 1.3.9.6 1.7 1.2 2.4 1.9s1.4 1.4 1.9 2.1c.6.9 1.1 2 1.5 3.2.3 1.2.5 2.4.5 3.5 0 1.8-.4 3.6-1.3 5.1-.9 1.6-2.1 2.9-3.6 4l8.7 15.3h-11.2zm-7.2-28.8h-5.8v8h5.8c.6 0 1.1-.1 1.6-.3.5-.2 1-.5 1.3-.9.4-.4.7-.8.9-1.3.2-.5.3-1 .3-1.6 0-.6-.1-1.1-.3-1.6-.2-.5-.5-.9-.9-1.3s-.8-.6-1.3-.9c-.5 0-1-.1-1.6-.1zM190.8 55l-1.6-4.2h-9l-1.6 4.2h-9.3l11.5-31.4h7.6L200.1 55h-9.3zm-6-18.1-2 6.1h4l-2-6.1zM220.5 55l-9.7-15.2V55h-8.9V23.6h8.7l9.7 15.3V23.6h8.9V55h-8.7zM249 55l-7.8-9.6V55h-9.1V23.6h9.1v9.6l7.8-9.6h11l-12.7 15.7L260 55h-11z"/></g><path style="fill:#f37842" d="M131.5 20 120.7 0l-10.9 20h6.5v40h8.7V20z"/></svg>